<svg width="906" height="1026" viewBox="0 0 906 1026" fill="none" xmlns="http://www.w3.org/2000/svg">
<path d="M548.999 108.169C611.999 15.6689 676.999 -20.3311 723.499 11.1689C769.999 42.669 803.393 118.332 800.499 150C797.499 182.831 778.499 209 751.999 228.669C727.237 247.048 611.76 301.677 538.341 332H906V513H865V1026H41V513H0V332H367.332C293.913 301.677 178.436 247.048 153.674 228.669C127.174 209 108.174 182.831 105.174 150C102.28 118.332 135.674 42.669 182.174 11.1689C228.674 -20.3311 293.674 15.6689 356.674 108.169C385.6 150.64 409.319 191.521 426.361 223.435C434.612 220.231 443.414 218.5 452.554 218.5C461.866 218.5 470.828 220.298 479.213 223.619C496.263 191.678 520.017 150.722 548.999 108.169ZM329.175 185.003C281.975 140.203 248.675 131.503 237.175 144.503C230.541 152.003 224.176 169.002 256.675 199.502C294.502 235.002 371.175 274.504 377.175 272.002C377.424 271.898 377.666 271.79 377.903 271.682C380.174 266.692 382.782 261.954 385.69 257.514C385.693 257.026 385.689 256.523 385.674 256.002C381.174 247.002 364.173 218.222 329.175 185.003ZM668.498 144.503C656.998 131.503 623.698 140.203 576.498 185.003C541.499 218.222 524.499 247.002 519.999 256.002C519.975 256.849 519.975 257.651 519.996 258.41C522.606 262.486 524.963 266.806 527.044 271.336C527.506 271.568 527.99 271.79 528.498 272.002C534.497 274.504 611.171 235.002 648.998 199.502C681.497 169.002 675.132 152.003 668.498 144.503Z" fill="black"/>
<path d="M506 513H865V619H506V1026H400V619H41V513H400V332H506V513Z" fill="white"/>
</svg>
